<svg xmlns="http://www.w3.org/2000/svg" xmlns:xlink="http://www.w3.org/1999/xlink" width="558" height="309.103" viewBox="0 0 558 309.103">
  <defs>
    <linearGradient id="linear-gradient" y1="0.5" x2="1" y2="0.5" gradientUnits="objectBoundingBox">
      <stop offset="0" stop-color="#439531"/>
      <stop offset="1" stop-color="#109f82"/>
    </linearGradient>
    <linearGradient id="linear-gradient-2" x1="0.138" y1="0.913" x2="0.862" y2="0.087" xlink:href="#linear-gradient"/>
    <linearGradient id="linear-gradient-4" x1="1" y1="0.5" x2="0" y2="0.5" xlink:href="#linear-gradient"/>
    <linearGradient id="linear-gradient-5" y1="0.5" x2="1" y2="0.5" gradientUnits="objectBoundingBox">
      <stop offset="0" stop-color="#229368"/>
      <stop offset="1" stop-color="#337226"/>
    </linearGradient>
  </defs>
  <g id="Group_153" data-name="Group 153" transform="translate(-228.836 -317.005)">
    <path id="Path_2233" data-name="Path 2233" d="M263.055,625.953s-68.557-73.608-11.594-153.3c50.541-70.707,109.467-65.874,152.7-37.18,18.414,12.221,71.5,1.506,116.686-70.441,61.62-98.117,275.216-38.609,236.27,112.346-18.847,73.052,57.358,75.707,18.529,148.73Z" transform="translate(0 0)" fill="#e3edf6"/>
    <path id="Path_2234" data-name="Path 2234" d="M870.911,754.4l-39.24,202.865a6.687,6.687,0,0,0,6.565,7.957h20.7Z" transform="translate(-469.32 -340.589)" fill="#006ba1"/>
    <path id="Path_2235" data-name="Path 2235" d="M919.7,748.158,893.686,947.339a11.033,11.033,0,0,0,10.94,12.461h38.155L921.269,747.438Z" transform="translate(-517.632 -335.17)" fill="#78acea"/>
    <path id="Path_2236" data-name="Path 2236" d="M970.493,750.689,958.85,948.6A12.97,12.97,0,0,0,971.8,962.332H1028.7Z" transform="translate(-568.43 -337.701)" fill="#699dee"/>
    <path id="Path_2237" data-name="Path 2237" d="M1009.564,757.988l5.661,196.3a12.97,12.97,0,0,0,12.947,13.731h56.905Z" transform="translate(-607.938 -343.385)" fill="#5288d8"/>
    <path id="Path_2238" data-name="Path 2238" d="M1290.088,959.283H1065.714a11.6,11.6,0,0,1-11.412-9.514l-34.142-186.709a13.8,13.8,0,0,1,13.578-16.286h221.732a11.6,11.6,0,0,1,11.412,9.514L1301.5,945.6A11.6,11.6,0,0,1,1290.088,959.283Z" transform="translate(-616.011 -334.652)" fill="#d7e9ff"/>
    <path id="Path_2239" data-name="Path 2239" d="M1016.406,787.307h248.108l-6.362-35.252a6.424,6.424,0,0,0-6.321-5.283H1011.51a2.1,2.1,0,0,0-2.069,2.482Z" transform="translate(-607.815 -334.652)" fill="#006ba1"/>
    <g id="Group_149" data-name="Group 149" transform="translate(403.636 401.513)">
      <g id="Group_136" data-name="Group 136" transform="translate(0 0)">
        <g id="Group_135" data-name="Group 135">
          <path id="Path_2240" data-name="Path 2240" d="M1029.4,698.842a10.767,10.767,0,0,0-10.757,10.754h2.067a8.692,8.692,0,1,1,11.532,8.213,8.588,8.588,0,0,1-2.347.465v2.066a10.624,10.624,0,0,0,2.749-.488,10.756,10.756,0,0,0-3.244-21.011Z" transform="translate(-1018.643 -698.842)" fill="#78acea"/>
        </g>
        <path id="Path_2241" data-name="Path 2241" d="M1065.889,782.774a2.4,2.4,0,0,1-.083.622,2.339,2.339,0,1,1,.083-.622Z" transform="translate(-1051.805 -762.385)" fill="#78acea"/>
      </g>
      <g id="Group_138" data-name="Group 138" transform="translate(38.566 0)">
        <g id="Group_137" data-name="Group 137">
          <path id="Path_2242" data-name="Path 2242" d="M1203.656,698.842A10.767,10.767,0,0,0,1192.9,709.6h2.064a8.692,8.692,0,0,1,17.383,0,8.615,8.615,0,0,1-.447,2.751,8.723,8.723,0,0,1-5.4,5.462,8.61,8.61,0,0,1-2.349.465v2.066a10.629,10.629,0,0,0,2.749-.488,10.755,10.755,0,0,0-3.241-21.011Z" transform="translate(-1192.899 -698.842)" fill="#78acea"/>
        </g>
        <path id="Path_2243" data-name="Path 2243" d="M1240.134,782.774a2.389,2.389,0,0,1-.083.622,2.344,2.344,0,1,1,.083-.622Z" transform="translate(-1226.053 -762.385)" fill="#78acea"/>
      </g>
      <g id="Group_140" data-name="Group 140" transform="translate(77.133 0)">
        <g id="Group_139" data-name="Group 139">
          <path id="Path_2244" data-name="Path 2244" d="M1377.912,698.842a10.767,10.767,0,0,0-10.757,10.754h2.064a8.692,8.692,0,1,1,11.535,8.213,8.61,8.61,0,0,1-2.35.465v2.066a10.65,10.65,0,0,0,2.749-.488,10.756,10.756,0,0,0-3.241-21.011Z" transform="translate(-1367.155 -698.842)" fill="#78acea"/>
        </g>
        <path id="Path_2245" data-name="Path 2245" d="M1414.39,782.774a2.394,2.394,0,0,1-.083.622,2.346,2.346,0,1,1,.083-.622Z" transform="translate(-1400.309 -762.385)" fill="#78acea"/>
      </g>
      <g id="Group_142" data-name="Group 142" transform="translate(115.699 0)">
        <g id="Group_141" data-name="Group 141">
          <path id="Path_2246" data-name="Path 2246" d="M1552.166,698.842a10.764,10.764,0,0,0-10.755,10.754h2.064a8.692,8.692,0,1,1,11.533,8.213,8.592,8.592,0,0,1-2.347.465v2.066a10.645,10.645,0,0,0,2.749-.488,10.756,10.756,0,0,0-3.244-21.011Z" transform="translate(-1541.411 -698.842)" fill="#78acea"/>
        </g>
        <path id="Path_2247" data-name="Path 2247" d="M1588.647,782.774a2.4,2.4,0,0,1-.083.622,2.336,2.336,0,1,1,.083-.622Z" transform="translate(-1574.565 -762.385)" fill="#78acea"/>
      </g>
      <g id="Group_144" data-name="Group 144" transform="translate(154.263 0)">
        <g id="Group_143" data-name="Group 143">
          <path id="Path_2248" data-name="Path 2248" d="M1726.413,698.842a10.767,10.767,0,0,0-10.757,10.754h2.064a8.692,8.692,0,0,1,17.383,0,8.615,8.615,0,0,1-.447,2.751,8.722,8.722,0,0,1-5.4,5.462,8.571,8.571,0,0,1-2.347.465v2.066a10.621,10.621,0,0,0,2.749-.488,10.755,10.755,0,0,0-3.241-21.011Z" transform="translate(-1715.656 -698.842)" fill="#78acea"/>
        </g>
        <path id="Path_2249" data-name="Path 2249" d="M1762.891,782.774a2.389,2.389,0,0,1-.083.622,2.336,2.336,0,1,1,.083-.622Z" transform="translate(-1748.809 -762.385)" fill="#78acea"/>
      </g>
      <g id="Group_146" data-name="Group 146" transform="translate(192.829 0)">
        <g id="Group_145" data-name="Group 145">
          <path id="Path_2250" data-name="Path 2250" d="M1900.669,698.842a10.767,10.767,0,0,0-10.757,10.754h2.064a8.692,8.692,0,1,1,11.533,8.213,8.569,8.569,0,0,1-2.347.465v2.066a10.625,10.625,0,0,0,2.749-.488,10.756,10.756,0,0,0-3.241-21.011Z" transform="translate(-1889.912 -698.842)" fill="#78acea"/>
        </g>
        <path id="Path_2251" data-name="Path 2251" d="M1937.147,782.774a2.4,2.4,0,0,1-.083.622,2.338,2.338,0,1,1,.083-.622Z" transform="translate(-1923.066 -762.385)" fill="#78acea"/>
      </g>
      <g id="Group_148" data-name="Group 148" transform="translate(231.395 0)">
        <g id="Group_147" data-name="Group 147">
          <path id="Path_2252" data-name="Path 2252" d="M2074.922,698.842a10.764,10.764,0,0,0-10.754,10.754h2.064a8.692,8.692,0,0,1,17.383,0,8.608,8.608,0,0,1-.447,2.751,8.722,8.722,0,0,1-5.4,5.462,8.594,8.594,0,0,1-2.347.465v2.066a10.625,10.625,0,0,0,2.749-.488,10.756,10.756,0,0,0-3.244-21.011Z" transform="translate(-2064.168 -698.842)" fill="#78acea"/>
        </g>
        <path id="Path_2253" data-name="Path 2253" d="M2111.4,782.774a2.4,2.4,0,0,1-.083.622,2.337,2.337,0,1,1,.083-.622Z" transform="translate(-2097.322 -762.385)" fill="#78acea"/>
      </g>
    </g>
    <path id="Path_2254" data-name="Path 2254" d="M1625.447,1166.467h-12.542a3.363,3.363,0,0,1-3.145-2.636l-2.419-12.542a2.118,2.118,0,0,1,2.128-2.636h12.542a3.362,3.362,0,0,1,3.145,2.636l2.419,12.542A2.118,2.118,0,0,1,1625.447,1166.467Z" transform="translate(-1073.377 -647.587)" fill="#afcdfb"/>
    <path id="Path_2255" data-name="Path 2255" d="M1768.449,1166.467h-12.542a3.363,3.363,0,0,1-3.145-2.636l-2.419-12.542a2.118,2.118,0,0,1,2.127-2.636h12.543a3.363,3.363,0,0,1,3.145,2.636l2.419,12.542A2.119,2.119,0,0,1,1768.449,1166.467Z" transform="translate(-1184.73 -647.587)" fill="#afcdfb"/>
    <path id="Path_2256" data-name="Path 2256" d="M1911.451,1166.467h-12.542a3.362,3.362,0,0,1-3.145-2.636l-2.419-12.542a2.118,2.118,0,0,1,2.128-2.636h12.542a3.362,3.362,0,0,1,3.145,2.636l2.42,12.542A2.119,2.119,0,0,1,1911.451,1166.467Z" transform="translate(-1296.083 -647.587)" fill="#78acea"/>
    <path id="Path_2257" data-name="Path 2257" d="M1196.442,1166.467H1183.9a3.362,3.362,0,0,1-3.145-2.636l-2.419-12.542a2.118,2.118,0,0,1,2.128-2.636h12.542a3.363,3.363,0,0,1,3.145,2.636l2.419,12.542A2.118,2.118,0,0,1,1196.442,1166.467Z" transform="translate(-739.319 -647.587)" fill="#afcdfb"/>
    <path id="Path_2258" data-name="Path 2258" d="M1170.758,1032.073h-5.39a1.444,1.444,0,0,1-1.351-1.133l-1.04-5.39a.91.91,0,0,1,.914-1.133h5.39a1.445,1.445,0,0,1,1.351,1.133l1.04,5.39A.91.91,0,0,1,1170.758,1032.073Z" transform="translate(-727.381 -550.848)" fill="url(#linear-gradient)"/>
    <path id="Path_2259" data-name="Path 2259" d="M1339.444,1166.467H1326.9a3.362,3.362,0,0,1-3.145-2.636l-2.419-12.542a2.118,2.118,0,0,1,2.127-2.636h12.542a3.363,3.363,0,0,1,3.145,2.636l2.419,12.542A2.118,2.118,0,0,1,1339.444,1166.467Z" transform="translate(-850.672 -647.587)" fill="#afcdfb"/>
    <path id="Path_2260" data-name="Path 2260" d="M1482.446,1166.467H1469.9a3.362,3.362,0,0,1-3.145-2.636l-2.419-12.542a2.119,2.119,0,0,1,2.128-2.636h12.542a3.362,3.362,0,0,1,3.145,2.636l2.419,12.542A2.119,2.119,0,0,1,1482.446,1166.467Z" transform="translate(-962.025 -647.587)" fill="#afcdfb"/>
    <path id="Path_2261" data-name="Path 2261" d="M2054.453,1166.467h-12.542a3.362,3.362,0,0,1-3.145-2.636l-2.419-12.542a2.118,2.118,0,0,1,2.128-2.636h12.542a3.362,3.362,0,0,1,3.144,2.636l2.42,12.542A2.119,2.119,0,0,1,2054.453,1166.467Z" transform="translate(-1407.436 -647.587)" fill="#78acea"/>
    <path id="Path_2262" data-name="Path 2262" d="M1601.705,1043.383h-12.542a3.362,3.362,0,0,1-3.145-2.636L1583.6,1028.2a2.118,2.118,0,0,1,2.128-2.636h12.542a3.363,3.363,0,0,1,3.145,2.636l2.419,12.542A2.118,2.118,0,0,1,1601.705,1043.383Z" transform="translate(-1054.89 -551.744)" fill="#afcdfb"/>
    <path id="Path_2263" data-name="Path 2263" d="M1744.707,1043.383h-12.542a3.362,3.362,0,0,1-3.145-2.636L1726.6,1028.2a2.118,2.118,0,0,1,2.127-2.636h12.542a3.363,3.363,0,0,1,3.145,2.636l2.419,12.542A2.118,2.118,0,0,1,1744.707,1043.383Z" transform="translate(-1166.243 -551.744)" fill="#afcdfb"/>
    <path id="Path_2264" data-name="Path 2264" d="M1887.709,1043.383h-12.542a3.362,3.362,0,0,1-3.145-2.636L1869.6,1028.2a2.118,2.118,0,0,1,2.128-2.636h12.542a3.363,3.363,0,0,1,3.145,2.636l2.419,12.542A2.118,2.118,0,0,1,1887.709,1043.383Z" transform="translate(-1277.595 -551.744)" fill="#78acea"/>
    <path id="Path_2265" data-name="Path 2265" d="M2030.71,1043.383h-12.542a3.362,3.362,0,0,1-3.145-2.636L2012.6,1028.2a2.119,2.119,0,0,1,2.128-2.636h12.542a3.363,3.363,0,0,1,3.145,2.636l2.419,12.542A2.118,2.118,0,0,1,2030.71,1043.383Z" transform="translate(-1388.947 -551.744)" fill="#78acea"/>
    <path id="Path_2266" data-name="Path 2266" d="M1650.612,1296.921H1638.07a3.363,3.363,0,0,1-3.145-2.636l-2.419-12.543a2.118,2.118,0,0,1,2.127-2.636h12.542a3.362,3.362,0,0,1,3.145,2.636l2.419,12.543A2.118,2.118,0,0,1,1650.612,1296.921Z" transform="translate(-1092.973 -749.169)" fill="#afcdfb"/>
    <path id="Path_2267" data-name="Path 2267" d="M1793.613,1296.921h-12.542a3.363,3.363,0,0,1-3.145-2.636l-2.419-12.543a2.118,2.118,0,0,1,2.128-2.636h12.542a3.362,3.362,0,0,1,3.145,2.636l2.419,12.543A2.118,2.118,0,0,1,1793.613,1296.921Z" transform="translate(-1204.325 -749.169)" fill="#afcdfb"/>
    <path id="Path_2268" data-name="Path 2268" d="M1936.615,1296.921h-12.542a3.363,3.363,0,0,1-3.145-2.636l-2.419-12.543a2.118,2.118,0,0,1,2.128-2.636h12.542a3.362,3.362,0,0,1,3.145,2.636l2.419,12.543A2.119,2.119,0,0,1,1936.615,1296.921Z" transform="translate(-1315.677 -749.169)" fill="#78acea"/>
    <path id="Path_2269" data-name="Path 2269" d="M1221.606,1296.921h-12.542a3.362,3.362,0,0,1-3.145-2.636l-2.42-12.543a2.119,2.119,0,0,1,2.128-2.636h12.542a3.363,3.363,0,0,1,3.145,2.636l2.419,12.543A2.119,2.119,0,0,1,1221.606,1296.921Z" transform="translate(-758.914 -749.169)" fill="#afcdfb"/>
    <path id="Path_2270" data-name="Path 2270" d="M1364.608,1296.921h-12.542a3.363,3.363,0,0,1-3.145-2.636l-2.419-12.543a2.118,2.118,0,0,1,2.128-2.636h12.542a3.362,3.362,0,0,1,3.145,2.636l2.42,12.543A2.119,2.119,0,0,1,1364.608,1296.921Z" transform="translate(-870.267 -749.169)" fill="#afcdfb"/>
    <path id="Path_2271" data-name="Path 2271" d="M1507.61,1296.921h-12.542a3.363,3.363,0,0,1-3.145-2.636l-2.419-12.543a2.118,2.118,0,0,1,2.127-2.636h12.542a3.363,3.363,0,0,1,3.145,2.636l2.42,12.543A2.119,2.119,0,0,1,1507.61,1296.921Z" transform="translate(-981.62 -749.169)" fill="#afcdfb"/>
    <path id="Path_2272" data-name="Path 2272" d="M2079.617,1296.921h-12.542a3.363,3.363,0,0,1-3.145-2.636l-2.419-12.543a2.118,2.118,0,0,1,2.127-2.636h12.543a3.362,3.362,0,0,1,3.144,2.636l2.419,12.543A2.118,2.118,0,0,1,2079.617,1296.921Z" transform="translate(-1427.03 -749.169)" fill="#78acea"/>
    <path id="Path_2273" data-name="Path 2273" d="M1675.776,1427.376h-12.542a3.362,3.362,0,0,1-3.145-2.636l-2.42-12.542a2.119,2.119,0,0,1,2.128-2.636h12.542a3.362,3.362,0,0,1,3.145,2.636l2.419,12.542A2.118,2.118,0,0,1,1675.776,1427.376Z" transform="translate(-1112.567 -850.752)" fill="#afcdfb"/>
    <path id="Path_2274" data-name="Path 2274" d="M1818.778,1427.376h-12.542a3.362,3.362,0,0,1-3.145-2.636l-2.419-12.542a2.118,2.118,0,0,1,2.128-2.636h12.542a3.362,3.362,0,0,1,3.145,2.636l2.42,12.542A2.118,2.118,0,0,1,1818.778,1427.376Z" transform="translate(-1223.92 -850.752)" fill="#afcdfb"/>
    <path id="Path_2275" data-name="Path 2275" d="M1961.779,1427.376h-12.542a3.362,3.362,0,0,1-3.145-2.636l-2.419-12.542a2.118,2.118,0,0,1,2.127-2.636h12.542a3.362,3.362,0,0,1,3.145,2.636l2.419,12.542A2.118,2.118,0,0,1,1961.779,1427.376Z" transform="translate(-1335.272 -850.752)" fill="#78acea"/>
    <path id="Path_2276" data-name="Path 2276" d="M1246.771,1427.376h-12.542a3.362,3.362,0,0,1-3.145-2.636l-2.419-12.542a2.119,2.119,0,0,1,2.128-2.636h12.542a3.362,3.362,0,0,1,3.145,2.636l2.419,12.542A2.118,2.118,0,0,1,1246.771,1427.376Z" transform="translate(-778.509 -850.752)" fill="#afcdfb"/>
    <path id="Path_2277" data-name="Path 2277" d="M1389.773,1427.376h-12.542a3.362,3.362,0,0,1-3.145-2.636l-2.419-12.542a2.119,2.119,0,0,1,2.128-2.636h12.542a3.362,3.362,0,0,1,3.145,2.636l2.42,12.542A2.118,2.118,0,0,1,1389.773,1427.376Z" transform="translate(-889.862 -850.752)" fill="url(#linear-gradient-2)"/>
    <path id="Path_2278" data-name="Path 2278" d="M1532.774,1427.376h-12.542a3.362,3.362,0,0,1-3.145-2.636l-2.42-12.542a2.119,2.119,0,0,1,2.128-2.636h12.542a3.363,3.363,0,0,1,3.145,2.636l2.419,12.542A2.118,2.118,0,0,1,1532.774,1427.376Z" transform="translate(-1001.215 -850.752)" fill="#afcdfb"/>
    <path id="Path_2279" data-name="Path 2279" d="M2104.781,1427.376h-12.542a3.362,3.362,0,0,1-3.145-2.636l-2.419-12.542a2.118,2.118,0,0,1,2.127-2.636h12.542a3.363,3.363,0,0,1,3.145,2.636l2.419,12.542A2.119,2.119,0,0,1,2104.781,1427.376Z" transform="translate(-1446.625 -850.752)" fill="#78acea"/>
    <path id="Path_2280" data-name="Path 2280" d="M1699.519,1550.46h-12.542a3.362,3.362,0,0,1-3.145-2.636l-2.42-12.542a2.119,2.119,0,0,1,2.128-2.636h12.542a3.363,3.363,0,0,1,3.145,2.636l2.419,12.542A2.118,2.118,0,0,1,1699.519,1550.46Z" transform="translate(-1131.055 -946.595)" fill="#afcdfb"/>
    <path id="Path_2281" data-name="Path 2281" d="M1842.52,1550.46h-12.542a3.363,3.363,0,0,1-3.145-2.636l-2.419-12.542a2.118,2.118,0,0,1,2.128-2.636h12.543a3.362,3.362,0,0,1,3.145,2.636l2.419,12.542A2.118,2.118,0,0,1,1842.52,1550.46Z" transform="translate(-1242.407 -946.595)" fill="#afcdfb"/>
    <path id="Path_2282" data-name="Path 2282" d="M1985.522,1550.46H1972.98a3.362,3.362,0,0,1-3.145-2.636l-2.419-12.542a2.118,2.118,0,0,1,2.127-2.636h12.542a3.363,3.363,0,0,1,3.145,2.636l2.419,12.542A2.118,2.118,0,0,1,1985.522,1550.46Z" transform="translate(-1353.76 -946.595)" fill="#78acea"/>
    <path id="Path_2283" data-name="Path 2283" d="M1270.514,1550.46h-12.542a3.362,3.362,0,0,1-3.145-2.636l-2.419-12.542a2.119,2.119,0,0,1,2.127-2.636h12.543a3.362,3.362,0,0,1,3.145,2.636l2.419,12.542A2.118,2.118,0,0,1,1270.514,1550.46Z" transform="translate(-796.997 -946.595)" fill="#afcdfb"/>
    <path id="Path_2284" data-name="Path 2284" d="M1413.516,1550.46h-12.542a3.363,3.363,0,0,1-3.145-2.636l-2.419-12.542a2.118,2.118,0,0,1,2.128-2.636h12.542a3.362,3.362,0,0,1,3.145,2.636l2.419,12.542A2.118,2.118,0,0,1,1413.516,1550.46Z" transform="translate(-908.35 -946.595)" fill="#afcdfb"/>
    <path id="Path_2285" data-name="Path 2285" d="M1556.517,1550.46h-12.542a3.362,3.362,0,0,1-3.145-2.636l-2.419-12.542a2.118,2.118,0,0,1,2.127-2.636h12.542a3.362,3.362,0,0,1,3.145,2.636l2.419,12.542A2.118,2.118,0,0,1,1556.517,1550.46Z" transform="translate(-1019.702 -946.595)" fill="#afcdfb"/>
    <path id="Path_2286" data-name="Path 2286" d="M1249.931,1030.38H1216.7a.893.893,0,0,1-.89-.891h0a.893.893,0,0,1,.89-.89h33.228a.893.893,0,0,1,.89.89h0A.893.893,0,0,1,1249.931,1030.38Z" transform="translate(-768.54 -554.104)" fill="#afcdfb"/>
    <path id="Path_2287" data-name="Path 2287" d="M1254.5,1048.562h-33.228a.893.893,0,0,1-.89-.89h0a.893.893,0,0,1,.89-.89H1254.5a.893.893,0,0,1,.89.89h0A.893.893,0,0,1,1254.5,1048.562Z" transform="translate(-772.094 -568.262)" fill="#afcdfb"/>
    <g id="Group_150" data-name="Group 150" transform="translate(432.654 442.913)">
      <path id="Path_2288" data-name="Path 2288" d="M1162.858,889.3h-11.4a1.7,1.7,0,0,1-1.7-1.7h0a1.7,1.7,0,0,1,1.7-1.7h11.4a1.7,1.7,0,0,1,1.7,1.7h0A1.7,1.7,0,0,1,1162.858,889.3Z" transform="translate(-1149.757 -885.902)" fill="#fff"/>
      <path id="Path_2289" data-name="Path 2289" d="M1304.225,889.3h-11.4a1.7,1.7,0,0,1-1.7-1.7h0a1.7,1.7,0,0,1,1.7-1.7h11.4a1.7,1.7,0,0,1,1.7,1.7h0A1.7,1.7,0,0,1,1304.225,889.3Z" transform="translate(-1259.838 -885.902)" fill="#fff"/>
      <path id="Path_2290" data-name="Path 2290" d="M1445.593,889.3h-11.4a1.7,1.7,0,0,1-1.7-1.7h0a1.7,1.7,0,0,1,1.7-1.7h11.4a1.7,1.7,0,0,1,1.7,1.7h0A1.7,1.7,0,0,1,1445.593,889.3Z" transform="translate(-1369.917 -885.902)" fill="#fff"/>
      <path id="Path_2291" data-name="Path 2291" d="M1586.96,889.3h-11.4a1.7,1.7,0,0,1-1.7-1.7h0a1.7,1.7,0,0,1,1.7-1.7h11.4a1.7,1.7,0,0,1,1.7,1.7h0A1.7,1.7,0,0,1,1586.96,889.3Z" transform="translate(-1479.997 -885.902)" fill="#fff"/>
      <path id="Path_2292" data-name="Path 2292" d="M1728.328,889.3h-11.4a1.7,1.7,0,0,1-1.7-1.7h0a1.7,1.7,0,0,1,1.7-1.7h11.4a1.7,1.7,0,0,1,1.7,1.7h0A1.7,1.7,0,0,1,1728.328,889.3Z" transform="translate(-1590.078 -885.902)" fill="#fff"/>
      <path id="Path_2293" data-name="Path 2293" d="M1869.7,889.3h-11.4a1.7,1.7,0,0,1-1.7-1.7h0a1.7,1.7,0,0,1,1.7-1.7h11.4a1.7,1.7,0,0,1,1.7,1.7h0A1.7,1.7,0,0,1,1869.7,889.3Z" transform="translate(-1700.158 -885.902)" fill="#fff"/>
      <path id="Path_2294" data-name="Path 2294" d="M2011.063,889.3h-11.4a1.7,1.7,0,0,1-1.7-1.7h0a1.7,1.7,0,0,1,1.7-1.7h11.4a1.7,1.7,0,0,1,1.7,1.7h0A1.7,1.7,0,0,1,2011.063,889.3Z" transform="translate(-1810.239 -885.902)" fill="#fff"/>
    </g>
    <g id="Group_151" data-name="Group 151" transform="translate(555.201 469.706)">
      <path id="Path_2295" data-name="Path 2295" d="M1709.631,1029.141c-2.518,0-4.351-.8-5.351-2.35-1.916-2.974-.437-7.143,4.4-12.392a61.259,61.259,0,0,1,7.694-6.9.364.364,0,1,1,.43.587c-.161.118-16.05,11.883-11.908,18.311,1.312,2.036,4.121,2.171,6.249,1.925,3.936-.455,9.069-2.575,13.73-5.671,4.825-3.2,8.223-6.815,9.324-9.908.722-2.029.5-3.466-.665-4.271-1.5-1.04-4.643-1.041-8.4,0a26.508,26.508,0,0,0-9.45,4.674.364.364,0,0,1-.471-.556,27.289,27.289,0,0,1,9.727-4.819c4.021-1.111,7.3-1.073,9.008.106,1.009.7,1.991,2.152.936,5.113-1.153,3.237-4.655,6.981-9.607,10.27-4.752,3.156-10,5.32-14.05,5.788A13.9,13.9,0,0,1,1709.631,1029.141Z" transform="translate(-1703.468 -1006.961)" fill="url(#linear-gradient)"/>
    </g>
    <path id="Path_2296" data-name="Path 2296" d="M1995.576,979.46l-1.294-2.442s.643-4.352-4.81-7.1a2.661,2.661,0,0,0-3.118.814c-1.036,1.5,1.975,1.226,1.813,3.787a4.709,4.709,0,0,0,2.746,4.9l1.4,1.62Z" transform="translate(-1368.376 -508.25)" fill="#ffb27d"/>
    <path id="Path_2297" data-name="Path 2297" d="M2061.888,984.417a42.845,42.845,0,0,1-22.375,27.347,48.193,48.193,0,0,1-8.075,3.144c-8.044,2.344-26.317-24.137-26.317-24.137s.642-2.441,4.667-1.88c0,0,17.792,11.779,20.032,13.059,1.176.672,6.23-4.559,11.4-9.469,3.567-3.39,7.188-6.628,9.622-7.664A15.207,15.207,0,0,1,2061.888,984.417Z" transform="translate(-1383.158 -519.044)" fill="#fff"/>
    <path id="Path_2298" data-name="Path 2298" d="M2140.888,1037.675l.558-18.035-2.086,1.113-7.3,7.044s-1.339,10.2-.038,14.523A36.321,36.321,0,0,0,2140.888,1037.675Z" transform="translate(-1481.527 -547.128)" fill="#e7e7e7"/>
    <g id="Group_152" data-name="Group 152" transform="translate(597.381 459.474)">
      <rect id="Rectangle_93" data-name="Rectangle 93" width="5.67" height="28.524" transform="translate(7.037 11.063) rotate(-100.493)" fill="#5c9cf4"/>
      <path id="Path_2299" data-name="Path 2299" d="M1894.051,989.516l7.037,1.58-1.032-5.576Z" transform="translate(-1894.051 -980.034)" fill="#fff"/>
      <path id="Path_2300" data-name="Path 2300" d="M2051.509,962.268l.327,1.763a2,2,0,0,1-1.6,2.327l-1.3.24-1.033-5.575,1.411-.261A1.881,1.881,0,0,1,2051.509,962.268Z" transform="translate(-2013.855 -960.729)" fill="#fff"/>
    </g>
    <path id="Path_2301" data-name="Path 2301" d="M2359.865,1635.292s3.2,2.918,2.573,4.99-3.508,3.455-3.9,5.988-1.949,3.915-3.353,3.915H2348.5s-1.033-1.783,1.462-2.32,3.436-3.514,3.28-6.278a48.649,48.649,0,0,1,.234-6.448l5.3-1.228Z" transform="translate(-1650.373 -1025.448)" fill="#233862"/>
    <path id="Path_2302" data-name="Path 2302" d="M2157.307,1665.205s.574,6.639-.83,7.33l-17.96-.037s0-2.072,2.885-2.533,7.952-2.149,8.81-5.911S2157.307,1665.205,2157.307,1665.205Z" transform="translate(-1487.031 -1047.816)" fill="#233862"/>
    <path id="Path_2303" data-name="Path 2303" d="M2154.9,1244.834s.947,11.638,2.06,25.626c1.514,19,3.333,42.344,3.514,46.766.311,7.678,1.56,19.961,1.56,19.961s2.961,2.918,8.888,1.688a198.216,198.216,0,0,0,6.79-36.085c.023-.3.047-.61.07-.917,1.4-18.885,3.585-58.652,3.585-58.652Z" transform="translate(-1499.79 -721.227)" fill="url(#linear-gradient-4)"/>
    <path id="Path_2304" data-name="Path 2304" d="M2154.9,1244.834s.947,11.638,2.06,25.626l20.752,32.33c.023-.3.047-.61.07-.917,1.4-18.885,3.585-58.652,3.585-58.652Z" transform="translate(-1499.79 -721.227)" fill="url(#linear-gradient-5)"/>
    <path id="Path_2305" data-name="Path 2305" d="M2174.449,1230.01s17.075,42.146,28.3,61.953,14.735,25.334,14.735,25.334,6.432-2.534,7.017-4.261c0,0-4.293-38.237-11.812-47.559-4.249-5.267-9.239-21.073-9.472-26.6s-1.521-16.467-1.521-16.467Z" transform="translate(-1515.011 -705.021)" fill="url(#linear-gradient-4)"/>
    <path id="Path_2306" data-name="Path 2306" d="M2211.874,914.029s-11.553,5.574-18.213,3.506a15.715,15.715,0,0,1,4.508-3.607c-.23-1.337-.41-2.5-.512-3.481a32.132,32.132,0,0,1-.282-3.557l4.458-3.506,4.226-3.355C2205.726,909.463,2211.874,914.029,2211.874,914.029Z" transform="translate(-1529.971 -453.99)" fill="#ffb27d"/>
    <path id="Path_2307" data-name="Path 2307" d="M2150.794,1018.592a1.041,1.041,0,0,0,.693.276c2.51-.051,9.81,1.336,15.982.705a47.21,47.21,0,0,0,14.781-4.184c.667-.3,2.18-1.111,2.152-1.816-.027-.807-.1-1.942-.2-3.407-.207-2.882-.5-6.973-.591-11.824-.069-3.6-.03-7.61.231-11.86.015-.285.03-.573.042-.862.075-1.558.111-3.128.111-4.662a80.906,80.906,0,0,0-1.048-13.871c-1.257-7.316-3.614-13.04-7.1-15.588-.462-.354-3.333,1.032-5.995,2.32a11.079,11.079,0,0,1-7.172.859l-2.305,2.017a22.767,22.767,0,0,0-7.225,11.35c-1.126,4.49-1.792,12.61-2.152,21.037-.177,3.833-.306,7.667-.357,11.323v.126c-.027.378-.027.76-.027,1.138C2150.488,1011.025,2150.614,1018.466,2150.794,1018.592Z" transform="translate(-1496.411 -494.024)" fill="#fff"/>
    <path id="Path_2308" data-name="Path 2308" d="M2219.2,915.44s-2.92,5.322-8.479,6.81a32.1,32.1,0,0,1-.282-3.557l4.458-3.506Z" transform="translate(-1543.039 -465.793)" fill="#ed985f"/>
    <path id="Path_2309" data-name="Path 2309" d="M2193.7,867.168s11.021,1.8,12.056-4.972,3.154-11.106-3.839-12.543-8.758.945-9.662,3.124S2190.855,866.525,2193.7,867.168Z" transform="translate(-1528.323 -414.422)" fill="#ffb27d"/>
    <path id="Path_2310" data-name="Path 2310" d="M2197.225,834.361c.1-.115.331-.207.844-.235a2.087,2.087,0,0,0-.96-.27,2.583,2.583,0,0,0-1.716-2.285,1.54,1.54,0,0,1,.747,1.112c-1.424-1.462-4.473-2.526-12.92-1.86-11.131.879-7.463,8.006-6.021,8.855s5.068-1.479,7.753-1.266,3.2,4.093,4.107,4.625.552-.409,1.785-.966,1.35,1.485.994,2.813,1.337,3.079,1.337,3.079l1.711-1.843c1.711-1.843,3.324-9.648,2.546-11.312C2197.363,834.659,2197.3,834.51,2197.225,834.361Z" transform="translate(-1515.791 -399.941)" fill="#2c3a64"/>
    <path id="Path_2311" data-name="Path 2311" d="M2010.864,986.545s.38-1.5-.659-2.171-1.995-2.5-2.433-2.256c-.907.514.5,2.111.24,4.1C2007.922,986.919,2009.546,988.748,2010.864,986.545Z" transform="translate(-1384.982 -517.892)" fill="#ffb27d"/>
    <path id="Path_2312" data-name="Path 2312" d="M2276.119,1083.6c-.069-3.6-.03-7.61.231-11.86.015-.285.03-.573.042-.862-1.048-5.19-2.632-9.8-4.965-9.945C2271.427,1060.935,2264.478,1071.856,2276.119,1083.6Z" transform="translate(-1588.923 -579.284)" fill="#e7e7e7"/>
    <path id="Path_2313" data-name="Path 2313" d="M2316.438,1244.377s-.579,5.632-1.214,6.7-3.342,4.469-4.495,5.137.7-4.485.469-5.488-.949,1.83-1.457,1.9-.377-2.483-.4-3.411,2.472-3.218,3.35-5.193S2316.438,1244.377,2316.438,1244.377Z" transform="translate(-1620.051 -721.227)" fill="#ffb27d"/>
    <path id="Path_2314" data-name="Path 2314" d="M2246.212,951.442s6.973,3.3,10.317,8.378c5.186,7.874,11.2,36.572,11.308,39.229s-4.388,21.419-4.388,21.419-4.562-.3-5.739-2.6c0,0,.912-19.276.334-20.516s-19.021-25.858-16.947-31.111S2246.212,951.442,2246.212,951.442Z" transform="translate(-1566.781 -494.024)" fill="#fff"/>
    <path id="Path_2315" data-name="Path 2315" d="M1897.656,992.732l.367,3.292-3.973-.892Z" transform="translate(-1296.67 -526.176)" fill="#1e3865"/>
  </g>
</svg>
